<?xml version="1.0" encoding="UTF-8"?> <svg xmlns="http://www.w3.org/2000/svg" xmlns:xlink="http://www.w3.org/1999/xlink" version="1.1" id="svgAnimateBizReady" x="0px" y="0px" viewBox="0 0 104.6 111.5" style="enable-background:new 0 0 104.6 111.5;" xml:space="preserve"> <style type="text/css"> .st0{fill:#5B31EE;} .checkmark { stroke: none; fill: #fff; transform-origin: 74% 74%; animation: opacity 4s ease-in-out both infinite; } .checkmark__circle { stroke-dasharray: 166; stroke-dashoffset: 166; stroke-width: 4; stroke-miterlimit: 10; stroke: #5B31EE; fill: none; animation: stroke 4s cubic-bezier(0.65, 0, 0.45, 1) forwards infinite, opacity 4s ease-in-out both infinite; } .checkmark__check { transform-origin: 50% 50%; stroke-dasharray: 48; stroke-dashoffset: 48; stroke-width: 4px; stroke: #5B31EE; stroke-linecap: round; animation: stroke-check 4s cubic-bezier(0.65, 0, 0.45, 1) forwards infinite, opacity 4s ease-in-out both infinite; } @keyframes opacity { 0% { opacity: 0; } 10% { opacity: 1; } 95% { opacity: 1; } 100% { opacity: 0; } } @keyframes stroke { 18.75%, 100% { stroke-dashoffset: 0; } } @keyframes stroke-check { 25% { stroke-dashoffset: 48; } 34.37%, 100% { stroke-dashoffset: 0; } } </style> <circle class="st0" cx="15" cy="77" r="3.1"></circle> <circle class="st0" cx="13.9" cy="16.5" r="3.1"></circle> <circle class="st0" cx="64.8" cy="5.9" r="3.1"></circle> <circle class="st0" cx="86.4" cy="27.6" r="3.1"></circle> <path class="st0" d="M80,12.6c-0.9-0.9-2.3-0.9-3.2,0L22.3,67.1c-0.9,0.9-0.9,2.3,0,3.2c0.9,0.9,2.3,0.9,3.2,0L80,15.8 C80.9,14.9,80.9,13.4,80,12.6z M57.3,14c-0.9-0.9-2.3-0.9-3.2,0L4.6,63.5c-0.9,0.9-0.9,2.3,0,3.2s2.3,0.9,3.2,0l49.6-49.6 C58.2,16.3,58.2,14.9,57.3,14L57.3,14L57.3,14z M78,36.7c-0.9-0.9-2.3-0.9-3.2,0L26.6,84.9c-0.9,0.9-0.8,2.3,0.1,3.2 c0.4,0.4,1,0.6,1.5,0.6c0.6,0,1.2-0.2,1.6-0.7L78,39.8C78.9,39,78.9,37.5,78,36.7z M93,43.7c-0.9-0.9-2.3-0.9-3.2,0L41.6,91.9 c-0.9,0.9-0.8,2.3,0.1,3.2c0.4,0.4,1,0.6,1.5,0.6c0.6,0,1.2-0.2,1.6-0.7L93,46.8C93.9,46,93.9,44.5,93,43.7z M48.8,0.7 c-0.9-0.9-2.3-0.9-3.2,0l-45,45c-0.9,0.8-1,2.3-0.1,3.2c0.8,0.9,2.3,1,3.2,0.1l0.1-0.1l45-45C49.7,3,49.7,1.5,48.8,0.7L48.8,0.7z"></path> <g> <circle class="checkmark" cx="76.4" cy="83.3" r="26"></circle> <circle class="checkmark__circle" cx="76.4" cy="83.3" r="26"></circle> <polyline class="checkmark__check" fill="none" points="61.5,82.9 71.2,92.5 91,72.7 "></polyline> </g> </svg> 