<?xml version="1.0" encoding="UTF-8"?> <svg xmlns="http://www.w3.org/2000/svg" xmlns:xlink="http://www.w3.org/1999/xlink" version="1.1" id="svgAnimateSaveTime" x="0px" y="0px" viewBox="0 0 134.7 134.8" style="enable-background:new 0 0 134.7 134.8;" xml:space="preserve"> <style type="text/css"> .svg-rotation-guide{fill:none;} .st1{fill:#5B31EE;} .animateRotate2, .animateRotate3{ transform-box: fill-box; transform-origin:50% 50%;} .animateRotate2{ animation: spin 120s linear infinite;} .animateRotate3{ animation: spin steps(60) 60s infinite;} @keyframes spin { 0% { transform: rotate(0deg); } 100% { transform: rotate(359deg); } } </style> <g class="animateRotate1"> <circle class="svg-rotation-guide" cx="67.3" cy="67.4" r="67.3"></circle> <path class="st1" d="M67.4,120.6c-29.4,0-53.2-23.9-53.2-53.2C14.2,38,38,14.2,67.4,14.2s53.2,23.8,53.2,53.2 c0,4.8-0.6,9.5-1.9,14.2l12.2-7.3c1.1-0.6,2.5-0.2,3.1,0.9c0.6,1,0.3,2.4-0.8,3l-16.7,10c-1,0.6-2.3,0.3-3-0.6l-11.7-16.9 c-0.7-1-0.4-2.4,0.6-3.1c1-0.7,2.4-0.4,3.1,0.6l8.7,12.6c7.4-25.9-7.6-52.8-33.4-60.2S28,28.1,20.6,53.9s7.6,52.8,33.4,60.2 c15.4,4.4,31.9,1,44.3-9.2c1-0.8,2.4-0.6,3.2,0.4c0.7,0.9,0.6,2.3-0.3,3.1C91.6,116.3,79.7,120.5,67.4,120.6z"></path> <circle class="st1 svg-rotation-pulse" cx="108.1" cy="97.6" r="3"></circle> </g> <g class="animateRotate2"> <circle class="svg-rotation-guide" cx="67.3" cy="67.4" r="26.2"></circle> <path class="st1" d="M67.3,69.7c-1.2,0-2.2-1-2.2-2.2v-24c-0.1-1.2,0.8-2.2,2.1-2.3c1.2-0.1,2.3,0.8,2.4,2.1c0,0.1,0,0.2,0,0.3v24 C69.5,68.7,68.5,69.7,67.3,69.7z"></path> </g> <g class="animateRotate3"> <circle class="svg-rotation-guide" cx="67.3" cy="67.4" r="35.9"></circle> <path class="st1" d="M65.4,66.2c0.6-1,2-1.3,3-0.7l28.4,17.8c1.1,0.6,1.5,1.9,0.9,3.1c-0.6,1.1-1.9,1.5-3.1,0.9 c-0.1-0.1-0.2-0.1-0.3-0.2L66.1,69.3C65.1,68.6,64.8,67.2,65.4,66.2z"></path> </g> </svg> 