<?xml version="1.0" encoding="UTF-8"?> <svg xmlns="http://www.w3.org/2000/svg" xmlns:xlink="http://www.w3.org/1999/xlink" version="1.1" id="svgAnimateServices" x="0px" y="0px" viewBox="0 0 107.9 106.1" style="enable-background:new 0 0 107.9 106.1;" xml:space="preserve"> <style type="text/css"> .st0{fill:#5B31EE;} #svgAnimateGear{ transform-box: fill-box; animation: spin 4s linear infinite; transform-origin:50% 50%;} @keyframes spin { 0% { transform: rotate(0deg); } 100% { transform: rotate(359deg); } } </style> <path id="static" class="st0" d="M106.9,68.6c-0.9-1.5-2.4-2.6-4.1-3c-2.5-0.5-5-0.2-7.3,0.7c-0.1-0.1-0.1-0.2-0.2-0.2 c-2.9-3.1-7.4-4.1-11.4-2.6c-0.1-0.5-0.4-0.9-0.9-1.2c-6.7-4.7-13.7-0.4-14-0.2l-12.8,8.7c-4.5-1-8.6-2.5-10-4 c-3.2-3.2-6.8-6-17-6.7C19.3,59.5,1.7,69.6,1,70c-1.1,0.6-1.5,2-0.9,3.1s2,1.5,3.1,0.9c0,0,0.1,0,0.1-0.1C8,71.2,21.9,64.1,29,64.6 c8.6,0.5,11.3,2.6,14,5.4c2.4,2.4,7.6,4.2,12.5,5.2c0.3,0.2,0.7,0.3,1.1,0.3c0.1,0,0.2,0,0.2,0c1.8,0.3,3.6,0.6,5.5,0.7 c6.4,0.4,7.6,1.3,8,3.3c0.2,0.9,0,1.8-0.6,2.5c-1.1,1.3-3.6,1.9-6.8,1.7c-1.6-0.1-3.3-0.1-5.1-0.2C51.2,83.3,43.7,83,39,81.3 c-1.2-0.4-2.5,0.2-2.9,1.4c-0.4,1.2,0.2,2.5,1.4,2.9l0,0c5.4,1.9,13.2,2.2,20.1,2.4c1.8,0.1,3.5,0.1,5.1,0.2c0.5,0,0.9,0,1.4,0 c5.1,0,7.7-1.7,9.1-3.3c0.1-0.1,0.2-0.3,0.3-0.4c0.3,0,0.5-0.1,0.7-0.2l18.7-11.9c2.1-1.3,6.4-3.1,8.8-2.5c0.6,0.1,1.2,0.6,1.5,1.1 c0.1,0.1,0.1,0.2,0.2,0.4c-0.1,0.5-1,3-8.2,7.8c-11.8,8-32.2,20.5-33.7,21.5c-0.7,0.3-7.3,3-18.6-3.6c-7.6-4.4-13.1-7.2-15.6-7.9 c-0.7-0.4-1.5-0.7-2.3-0.8c-3.1-0.3-7.3,1.8-12.4,6.1c-1,0.8-1.1,2.2-0.4,3.2c0.8,1,2.2,1.1,3.2,0.4l0.1-0.1c6.3-5.4,8.8-5.2,9.3-5 c0.3,0.4,0.8,0.6,1.3,0.6c0.6,0.2,3.9,1.3,14.6,7.5c6.8,4,12.2,5,16.2,5c2.3,0.1,4.7-0.4,6.8-1.3l0.1-0.1c0.2-0.1,21.7-13.4,34-21.7 c6.8-4.6,10.1-8.4,10.2-11.6C108,70.5,107.6,69.4,106.9,68.6z M71.6,65.9c0,0,4.3-2.7,8.4-0.2l-11.5,6.9c-1.8-0.4-3.7-0.7-5.6-0.7 L71.6,65.9z M74.8,78.7c-0.2-1.3-0.8-2.6-1.7-3.6l11.7-7c0.4-0.2,3.5-1.7,6.3,0.3l-0.6,0.3L74.8,78.7z"></path> <path id="svgAnimateGear" class="st0" d="M54.3,41.7c-6.4,0-11.6-5.2-11.6-11.6s5.2-11.6,11.6-11.6s11.6,5.2,11.6,11.6l0,0 C65.8,36.5,60.6,41.7,54.3,41.7z M54.3,23.1c-3.9,0-7.1,3.2-7.1,7.1s3.2,7.1,7.1,7.1s7.1-3.2,7.1-7.1l0,0 C61.3,26.2,58.2,23.1,54.3,23.1z M57.6,59.5H51c-0.9,0-1.6-0.6-1.8-1.4l-1.7-7.6c-1.1-0.4-2.1-0.8-3.1-1.3l-6.6,4.2 c-0.7,0.4-1.6,0.3-2.2-0.2l-4.7-4.6c-0.6-0.6-0.7-1.5-0.2-2.2l4.2-6.6c-0.5-1-0.9-2-1.3-3.1L26,35c-0.8-0.2-1.4-0.9-1.4-1.8v-6.7 c0-0.9,0.6-1.6,1.4-1.8l7.6-1.7c0.3-1.1,0.8-2.1,1.3-3.1l-4.2-6.6c-0.4-0.7-0.3-1.6,0.2-2.2l4.7-4.7c0.6-0.6,1.5-0.7,2.2-0.2 l6.6,4.1c1-0.5,2.1-0.9,3.1-1.3l1.7-7.6C49.3,0.6,50.1,0,50.9,0h6.6c0.9,0,1.6,0.6,1.8,1.4L61,9c1.1,0.3,2.1,0.8,3.2,1.3l6.6-4.2 c0.7-0.4,1.6-0.3,2.2,0.2l4.7,4.7c0.6,0.6,0.7,1.5,0.2,2.2l-4.2,6.6c0.5,1,0.9,2,1.3,3l7.6,1.7c0.8,0.2,1.4,0.9,1.4,1.8V33 c0,0.9-0.6,1.6-1.4,1.8L75,36.5c-0.3,1-0.8,2-1.3,3l4.2,6.6c0.4,0.7,0.3,1.6-0.2,2.2L73,53c-0.6,0.6-1.5,0.7-2.2,0.2l-6.6-4.1 c-1,0.5-2,1-3.1,1.3L59.4,58C59.2,58.9,58.5,59.5,57.6,59.5z M52.4,55.9h3.8l1.6-7.3c0.1-0.7,0.6-1.2,1.3-1.4c1.5-0.4,2.9-1,4.2-1.8 c0.6-0.3,1.3-0.3,1.8,0.1l6.2,4l2.7-2.7l-4-6.2c-0.3-0.6-0.4-1.2-0.1-1.8c0.8-1.3,1.4-2.8,1.8-4.2c0.2-0.6,0.7-1.1,1.4-1.3l7.2-1.6 v-3.9l-7.2-1.6c-0.7-0.1-1.2-0.6-1.4-1.3c-0.4-1.5-1-2.9-1.8-4.2c-0.3-0.6-0.3-1.3,0.1-1.8l4-6.2L71.3,10l-6.2,4 c-0.6,0.3-1.3,0.4-1.8,0.1c-1.3-0.8-2.7-1.4-4.2-1.8c-0.6-0.2-1.1-0.7-1.3-1.4l-1.6-7.2h-3.8l-1.6,7.2c-0.1,0.7-0.6,1.2-1.3,1.4 c-1.5,0.4-3,1-4.4,1.8c-0.6,0.3-1.3,0.3-1.8-0.1l-6.2-4l-2.6,2.6l4,6.2c0.4,0.6,0.4,1.3,0,1.8c-0.8,1.3-1.4,2.8-1.8,4.3 c-0.2,0.6-0.7,1.1-1.3,1.3l-7.2,1.6v3.8l7.2,1.6c0.6,0.1,1.2,0.6,1.3,1.3c0.4,1.5,1,3,1.8,4.3c0.3,0.6,0.3,1.3-0.1,1.8l-4,6.2 l2.6,2.6l6.2-4c0.6-0.3,1.2-0.4,1.8-0.1c1.4,0.8,2.8,1.4,4.3,1.8c0.6,0.2,1.1,0.7,1.3,1.4L52.4,55.9z"></path> </svg> 