<?xml version="1.0" encoding="UTF-8"?> <svg xmlns="http://www.w3.org/2000/svg" xmlns:xlink="http://www.w3.org/1999/xlink" version="1.1" id="svgAnimateTransform" x="0px" y="0px" viewBox="0 0 114 114" style="enable-background:new 0 0 114 114;" xml:space="preserve"> <style type="text/css"> .st0{fill:#5B31EE;} #svgAnimateTransform{ transform-box: fill-box; animation: spin 4s linear infinite; transform-origin:50% 50%;} @keyframes spin { 0% { transform: rotate(0deg); } 100% { transform: rotate(359deg); } } </style> <path class="st0" d="M15.8,57.2c-7.5,0-13.5-6.1-13.5-13.5c0-7.5,6.1-13.6,13.5-13.6s13.5,6.1,13.5,13.6 C29.3,51.2,23.3,57.2,15.8,57.2z M15.8,34.6c-5,0-9,4.1-9,9.1s4.1,9,9,9s9-4.1,9-9S20.8,34.6,15.8,34.6z M98.4,57.2 c-7.5,0-13.5-6.1-13.5-13.5c0-7.5,6.1-13.6,13.5-13.6S112,36.2,112,43.7C112,51.2,105.9,57.2,98.4,57.2z M98.4,34.6 c-5,0-9,4.1-9,9.1s4.1,9,9,9s9.1-4.1,9.1-9S103.4,34.6,98.4,34.6z M57.1,27c-7.5,0-13.5-6.1-13.5-13.5S49.6,0,57.1,0 C64.6,0,70.6,6,70.6,13.5S64.6,27,57.1,27z M57.1,4.5c-5,0-9,4.1-9,9s4.1,9,9,9s9-4.1,9-9S62.1,4.5,57.1,4.5z M57,74.5 c-9.6,0-17.5-7.8-17.5-17.5S47.4,39.5,57,39.5S74.5,47.4,74.5,57S66.6,74.5,57,74.5z M57,44c-7.1,0-13,5.8-13,13s5.8,13,13,13 s13-5.8,13-13S64.1,44,57,44z M31.6,105.8c-7.5,0-13.5-6.1-13.5-13.5s6.1-13.5,13.5-13.5c7.5,0,13.6,6.1,13.6,13.5 S39.1,105.8,31.6,105.8z M31.6,83.2c-5,0-9,4.1-9,9s4.1,9,9,9s9.1-4.1,9.1-9S36.6,83.2,31.6,83.2z M82.5,105.8 C75,105.8,69,99.7,69,92.2S75,78.7,82.5,78.7S96,84.7,96,92.2S90,105.8,82.5,105.8z M82.5,83.2c-5,0-9,4.1-9,9s4.1,9,9,9s9-4.1,9-9 S87.5,83.2,82.5,83.2z M34.7,46.5c1.8,0,3.3,1.5,3.3,3.3s-1.5,3.3-3.3,3.3s-3.3-1.5-3.3-3.3S32.9,46.5,34.7,46.5z M79.7,46.5 c1.8,0,3.3,1.5,3.3,3.3s-1.5,3.3-3.3,3.3s-3.3-1.5-3.3-3.3S77.9,46.5,79.7,46.5z M57.2,30.1c1.8,0,3.3,1.5,3.3,3.3s-1.5,3.3-3.3,3.3 s-3.3-1.5-3.3-3.3S55.4,30.1,57.2,30.1z M43.1,73.1c1.8,0,3.3,1.5,3.3,3.3s-1.5,3.3-3.3,3.3s-3.3-1.5-3.3-3.3S41.3,73.1,43.1,73.1z M71.2,73.1c1.8,0,3.3,1.5,3.3,3.3s-1.5,3.3-3.3,3.3s-3.3-1.5-3.3-3.3S69.4,73.1,71.2,73.1z"></path> </svg> 